[Header]                  # Header keywords are followed by a single value
FileType htr              # single word string
DataType HTRS             # Hierarchical translations followed by rotations and Scale
FileVersion 1             # integer
NumSegments   22        # integer
NumFrames   4          # integer
DataFrameRate    60      # integer
EulerRotationOrder ZYX    # one word string
CalibrationUnits mm   # one word string
RotationUnits Degrees     # one word string
GlobalAxisofGravity Y        # character, X or Y or Z
BoneLengthAxis Y
ScaleFactor 1.0000
[SegmentNames&Hierarchy]
#CHILD         PARENT
LowerTorso	GLOBAL
MidTorso1	LowerTorso
MidTorso2	MidTorso1
UpperTorso	MidTorso2
Neck	UpperTorso
Head	Neck
LCollar	UpperTorso
LUpArm	LCollar
LLowArm	LUpArm
LHand	LLowArm
RCollar	UpperTorso
RUpArm	RCollar
RLowArm	RUpArm
RHand	RLowArm
RThigh	LowerTorso
RLowLeg	RThigh
RFoot	RLowLeg
RToe	RFoot
LThigh	LowerTorso
LLowLeg	LThigh
LFoot	LLowLeg
LToe	LFoot
[BasePosition]
#SegmentName Tx, Ty, Tz, Rx, Ry, Rz, BoneLength
LowerTorso	245.858011	950.547112	300.901792	3.160114	-0.119681	0.216534	50.177140	
MidTorso1	0.000000	50.177140	0.000000	12.744977	0.544086	-1.233692	50.243103	
MidTorso2	0.000000	50.243103	0.000000	-8.561622	-5.666755	-0.324056	70.108070	
UpperTorso	0.000000	70.108070	0.000000	-7.840640	5.423498	1.565454	211.798493	
Neck	0.000000	211.798493	0.000000	3.763396	2.354772	0.143986	247.477358	
Head	0.000000	247.477358	0.000000	87.188098	-1.617490	-0.909978	97.755902	
LCollar	5.963899	207.774288	0.020038	-0.085181	3.120430	-88.053499	154.341182	
LUpArm	0.000000	154.341182	0.000000	17.609330	2.601210	1.098979	257.694232	
LLowArm	0.000000	257.694232	0.000000	-4.295116	-4.411555	-0.381267	245.288314	
LHand	0.000000	245.288314	0.000000	-1.254656	0.451892	-3.187610	143.943585	
RCollar	-6.407295	207.548200	-0.033576	-3.957489	-2.573361	89.782717	159.716168	
RUpArm	0.000000	159.716168	0.000000	10.569861	0.025507	1.593474	259.181013	
RLowArm	0.000000	259.181013	0.000000	2.433186	-0.094719	0.439860	254.783021	
RHand	0.000000	254.783021	0.000000	-2.521327	-1.940663	10.821380	138.724995	
RThigh	-104.582724	-43.868855	71.110148	1.186921	1.056410	177.271085	484.665755	
RLowLeg	0.000000	484.665755	0.000000	-9.413113	-2.560999	2.584420	338.943480	
RFoot	0.000000	338.943480	0.000000	38.119802	-1.210697	-2.462270	108.422675	
RToe	0.000000	108.422675	0.000000	62.205972	5.729825	0.107186	135.948299	
LThigh	104.514322	-44.027056	71.110540	1.887019	-3.794944	-176.973714	484.665500	
LLowLeg	0.000000	484.665500	0.000000	-9.413064	2.561022	-2.584327	338.944952	
LFoot	0.000000	338.944952	0.000000	38.119895	1.210631	2.462181	108.422417	
LToe	0.000000	108.422417	0.000000	62.206117	-5.729564	-0.107296	135.948400	
#Beginning of Data. Separated by tabs
[LowerTorso]
#Fr     Tx      Ty      Tz      Rx      Ry      Rz      SF
351	420.314575	-178.273224	244.831772	-2.924384	-12.382869	0.900812	1.000000	
352	428.625122	-152.393127	250.360580	-3.361930	-18.238096	0.968455	1.000000	
353	438.499237	-123.164528	257.439972	-3.489950	-25.016857	1.217535	1.000000	
354	448.870239	-92.559784	262.821198	-2.088022	-32.416527	1.778864	1.000000	
[MidTorso1]
#Fr     Tx      Ty      Tz      Rx      Ry      Rz      SF
351	0.000000	0.000000	0.000000	3.221791	3.520203	-3.815290	1.000000	
352	0.000000	0.000000	0.000000	2.490400	3.116520	-3.539258	1.000000	
353	0.000000	0.000000	0.000000	1.592383	2.553360	-3.113756	1.000000	
354	0.000000	0.000000	0.000000	0.263938	1.835449	-2.829035	1.000000	
[MidTorso2]
#Fr     Tx      Ty      Tz      Rx      Ry      Rz      SF
351	0.000000	0.000000	0.000000	2.789220	4.108533	-3.565134	1.000000	
352	0.000000	0.000000	0.000000	2.096240	3.651955	-3.278904	1.000000	
353	0.000000	0.000000	0.000000	1.253507	3.013173	-2.851875	1.000000	
354	0.000000	0.000000	0.000000	-0.031995	2.233630	-2.545400	1.000000	
[UpperTorso]
#Fr     Tx      Ty      Tz      Rx      Ry      Rz      SF
351	0.000000	0.000000	0.000000	3.255233	4.437913	-2.667993	1.000000	
352	0.000000	0.000000	0.000000	2.516629	3.977232	-2.515712	1.000000	
353	0.000000	0.000000	0.000000	1.610178	3.322307	-2.264897	1.000000	
354	0.000000	0.000000	0.000000	0.269872	2.561804	-2.191778	1.000000	
[Neck]
#Fr     Tx      Ty      Tz      Rx      Ry      Rz      SF
351	0.000000	0.000000	0.000000	1.044978	-58.622261	-1.222789	1.000000	
352	0.000000	0.000000	0.000000	3.005024	-54.787144	-2.412283	1.000000	
353	0.000000	0.000000	0.000000	4.694913	-49.759083	-3.195723	1.000000	
354	0.000000	0.000000	0.000000	5.079132	-43.940006	-1.970669	1.000000	
[Head]
#Fr     Tx      Ty      Tz      Rx      Ry      Rz      SF
351	0.000000	0.000000	0.000000	0.726564	11.852917	-0.918374	1.000000	
352	0.000000	0.000000	0.000000	0.043642	10.634353	-0.917031	1.000000	
353	0.000000	0.000000	0.000000	-0.749669	8.901961	-0.886508	1.000000	
354	0.000000	0.000000	0.000000	-2.050890	6.381657	-0.494764	1.000000	
[LCollar]
#Fr     Tx      Ty      Tz      Rx      Ry      Rz      SF
351	0.000000	0.000000	0.000000	4.869349	1.248567	-14.347008	1.000000	
352	0.000000	0.000000	0.000000	6.431756	1.651631	-14.341767	1.000000	
353	0.000000	0.000000	0.000000	7.835396	2.058546	-14.629107	1.000000	
354	0.000000	0.000000	0.000000	5.136684	1.356876	-14.757415	1.000000	
[LUpArm]
#Fr     Tx      Ty      Tz      Rx      Ry      Rz      SF
351	0.000000	0.000000	0.000000	0.843568	15.400109	-40.257366	1.000000	
352	0.000000	0.000000	0.000000	-1.733260	13.057946	-41.541180	1.000000	
353	0.000000	0.000000	0.000000	-5.060122	10.008466	-42.538452	1.000000	
354	0.000000	0.000000	0.000000	-3.663550	10.083521	-41.251160	1.000000	
[LLowArm]
#Fr     Tx      Ty      Tz      Rx      Ry      Rz      SF
351	0.000000	0.000000	0.000000	132.392868	-0.009250	-0.020963	1.000000	
352	0.000000	0.000000	0.000000	135.045288	-0.008849	-0.021382	1.000000	
353	0.000000	0.000000	0.000000	137.997040	-0.008381	-0.021826	1.000000	
354	0.000000	0.000000	0.000000	139.200562	-0.008184	-0.022000	1.000000	
[LHand]
#Fr     Tx      Ty      Tz      Rx      Ry      Rz      SF
351	0.000000	0.000000	0.000000	29.648037	9.600912	-5.580348	1.000000	
352	0.000000	0.000000	0.000000	29.977779	9.317691	-6.712871	1.000000	
353	0.000000	0.000000	0.000000	30.443396	8.786155	-8.320287	1.000000	
354	0.000000	0.000000	0.000000	29.806562	8.370879	-7.425690	1.000000	
[RCollar]
#Fr     Tx      Ty      Tz      Rx      Ry      Rz      SF
351	0.000000	0.000000	0.000000	4.266731	-0.853553	11.291595	1.000000	
352	0.000000	0.000000	0.000000	2.756206	-0.561257	11.500857	1.000000	
353	0.000000	0.000000	0.000000	1.862794	-0.387836	11.756473	1.000000	
354	0.000000	0.000000	0.000000	5.029760	-1.070947	11.989155	1.000000	
[RUpArm]
#Fr     Tx      Ty      Tz      Rx      Ry      Rz      SF
351	0.000000	0.000000	0.000000	8.010605	19.006180	40.593346	1.000000	
352	0.000000	0.000000	0.000000	8.985209	17.193172	41.490772	1.000000	
353	0.000000	0.000000	0.000000	10.587447	14.145607	41.796444	1.000000	
354	0.000000	0.000000	0.000000	8.481963	13.136527	40.559803	1.000000	
[RLowArm]
#Fr     Tx      Ty      Tz      Rx      Ry      Rz      SF
351	0.000000	0.000000	0.000000	128.949066	-0.000011	0.000055	1.000000	
352	0.000000	0.000000	0.000000	127.361534	-0.000010	0.000055	1.000000	
353	0.000000	0.000000	0.000000	124.733864	-0.000009	0.000054	1.000000	
354	0.000000	0.000000	0.000000	124.457451	-0.000009	0.000054	1.000000	
[RHand]
#Fr     Tx      Ty      Tz      Rx      Ry      Rz      SF
351	0.000000	0.000000	0.000000	158.911118	0.111652	-155.306488	1.000000	
352	0.000000	0.000000	0.000000	159.892349	-0.211591	-154.910843	1.000000	
353	0.000000	0.000000	0.000000	161.338150	-0.238359	-155.054749	1.000000	
354	0.000000	0.000000	0.000000	162.444855	3.262379	-157.971176	1.000000	
[RThigh]
#Fr     Tx      Ty      Tz      Rx      Ry      Rz      SF
351	0.000000	0.000000	0.000000	9.638410	-12.140128	-21.233150	1.000000	
352	0.000000	0.000000	0.000000	10.036445	-16.011885	-21.349936	1.000000	
353	0.000000	0.000000	0.000000	11.060553	-19.735966	-21.858030	1.000000	
354	0.000000	0.000000	0.000000	14.905307	-21.721151	-23.150517	1.000000	
[RLowLeg]
#Fr     Tx      Ty      Tz      Rx      Ry      Rz      SF
351	0.000000	0.000000	0.000000	-44.222286	-0.000003	-0.000016	1.000000	
352	0.000000	0.000000	0.000000	-37.606102	-0.000001	-0.000014	1.000000	
353	0.000000	0.000000	0.000000	-30.102842	0.000000	-0.000011	1.000000	
354	0.000000	0.000000	0.000000	-24.709055	0.000000	-0.000009	1.000000	
[RFoot]
#Fr     Tx      Ty      Tz      Rx      Ry      Rz      SF
351	0.000000	0.000000	0.000000	16.718037	-3.034876	9.996818	1.000000	
352	0.000000	0.000000	0.000000	12.027460	-2.543828	11.767435	1.000000	
353	0.000000	0.000000	0.000000	5.430661	-1.296307	13.385502	1.000000	
354	0.000000	0.000000	0.000000	0.842829	-0.201738	13.459913	1.000000	
[RToe]
#Fr     Tx      Ty      Tz      Rx      Ry      Rz      SF
351	0.000000	0.000000	0.000000	22.069330	0.000040	0.000017	1.000000	
352	0.000000	0.000000	0.000000	19.817677	0.000036	0.000014	1.000000	
353	0.000000	0.000000	0.000000	18.293871	0.000033	0.000013	1.000000	
354	0.000000	0.000000	0.000000	13.572296	0.000025	0.000009	1.000000	
[LThigh]
#Fr     Tx      Ty      Tz      Rx      Ry      Rz      SF
351	0.000000	0.000000	0.000000	22.734035	16.642382	23.027527	1.000000	
352	0.000000	0.000000	0.000000	16.750305	13.231495	21.487183	1.000000	
353	0.000000	0.000000	0.000000	11.021362	9.774150	19.687738	1.000000	
354	0.000000	0.000000	0.000000	8.252054	4.802865	17.809515	1.000000	
[LLowLeg]
#Fr     Tx      Ty      Tz      Rx      Ry      Rz      SF
351	0.000000	0.000000	0.000000	-47.689400	0.000072	-0.000054	1.000000	
352	0.000000	0.000000	0.000000	-42.051174	0.000066	-0.000045	1.000000	
353	0.000000	0.000000	0.000000	-36.119034	0.000059	-0.000036	1.000000	
354	0.000000	0.000000	0.000000	-33.430859	0.000056	-0.000032	1.000000	
[LFoot]
#Fr     Tx      Ty      Tz      Rx      Ry      Rz      SF
351	0.000000	0.000000	0.000000	17.532223	3.830972	-11.941662	1.000000	
352	0.000000	0.000000	0.000000	11.361488	1.991924	-9.814283	1.000000	
353	0.000000	0.000000	0.000000	2.199803	0.221702	-5.752583	1.000000	
354	0.000000	0.000000	0.000000	-2.724286	-0.016540	-0.347648	1.000000	
[LToe]
#Fr     Tx      Ty      Tz      Rx      Ry      Rz      SF
351	0.000000	0.000000	0.000000	17.384283	0.000048	0.000013	1.000000	
352	0.000000	0.000000	0.000000	18.190048	0.000050	0.000014	1.000000	
353	0.000000	0.000000	0.000000	19.320009	0.000053	0.000015	1.000000	
354	0.000000	0.000000	0.000000	11.206027	0.000031	0.000007	1.000000	
[EndOfFile]
